<?xml version="1.0" encoding="UTF-8" standalone="no"?>
<svg
   xmlns:dc="http://purl.org/dc/elements/1.1/"
   xmlns:cc="http://creativecommons.org/ns#"
   xmlns:rdf="http://www.w3.org/1999/02/22-rdf-syntax-ns#"
   xmlns:svg="http://www.w3.org/2000/svg"
   xmlns="http://www.w3.org/2000/svg"
   version="1.1"
   viewBox="0 0 400 400"
   data-name="Logo — FIXED"
   id="Logo_FIXED">
  <metadata
     id="metadata15">
    <rdf:RDF>
      <cc:Work
         rdf:about="">
        <dc:format>image/svg+xml</dc:format>
        <dc:type
           rdf:resource="http://purl.org/dc/dcmitype/StillImage" />
        <dc:title>Twitter_Logo_Blue</dc:title>
      </cc:Work>
    </rdf:RDF>
  </metadata>
  <defs
     id="defs4">
    <style
       id="style2">.cls-1{fill:none;}.cls-2{fill:#1da1f2;}</style>
  </defs>
  <title
     id="title6">Twitter_Logo_Blue</title>
  <rect
     id="rect8"
     height="400"
     width="400"
     class="cls-1" />
  <path
     style="fill:#1da1f2;stroke-width:1.58305085"
     id="path10"
     d="m 126.5781,360.80987 c 149.34502,0 231.03044,-123.73125 231.03044,-231.03044 0,-3.51437 0,-7.01291 -0.23746,-10.49562 A 165.20719,165.20719 0 0 0 397.88136,77.253806 162.07275,162.07275 0 0 1 351.24468,90.029026 81.479627,81.479627 0 0 0 386.94247,45.117873 162.7218,162.7218 0 0 1 335.38251,64.826856 81.273831,81.273831 0 0 0 197.00803,138.88198 230.52386,230.52386 0 0 1 29.663729,54.04628 81.258,81.258 0 0 0 54.802576,162.43777 80.593119,80.593119 0 0 1 17.949153,152.27459 c 0,0.33244 0,0.68071 0,1.02898 a 81.226339,81.226339 0 0 0 65.142542,79.59579 81.068034,81.068034 0 0 1 -36.663458,1.39309 81.289661,81.289661 0 0 0 75.859793,56.38827 A 162.92759,162.92759 0 0 1 21.447695,325.50784 165.28634,165.28634 0 0 1 2.1186441,324.33638 229.87481,229.87481 0 0 0 126.5781,360.74655"
     class="cls-2" />
</svg>
